mtllib materials.mtl
v 4.800000 15.000000 7.500000
vn 0.000000 0.000000 1.000000
vt 4.800000 15.000000
v 5.000000 45.200001 7.500000
vn 0.000000 0.000000 1.000000
vt 5.000000 45.200001
v 4.800000 45.000000 7.500000
vn 0.000000 0.000000 1.000000
vt 4.800000 45.000000
v 5.000000 14.800000 7.500000
vn 0.000000 0.000000 1.000000
vt 5.000000 14.800000
v 5.000000 45.200001 7.500000
vn 0.000000 0.000000 1.000000
vt 5.000000 45.200001
v 4.800000 15.000000 7.500000
vn 0.000000 0.000000 1.000000
vt 4.800000 15.000000
v 55.200001 45.000000 7.500000
vn 0.000000 0.000000 1.000000
vt 55.200001 45.000000
v 55.000000 14.800000 7.500000
vn 0.000000 0.000000 1.000000
vt 55.000000 14.800000
v 55.200001 15.000000 7.500000
vn 0.000000 0.000000 1.000000
vt 55.200001 15.000000
v 55.000000 45.200001 7.500000
vn 0.000000 0.000000 1.000000
vt 55.000000 45.200001
v 55.000000 14.800000 7.500000
vn 0.000000 0.000000 1.000000
vt 55.000000 14.800000
v 55.200001 45.000000 7.500000
vn 0.000000 0.000000 1.000000
vt 55.200001 45.000000
v 5.000000 14.800000 7.500000
vn 0.000000 0.000000 1.000000
vt 5.000000 14.800000
v 55.000000 45.200001 7.500000
vn 0.000000 0.000000 1.000000
vt 55.000000 45.200001
v 5.000000 45.200001 7.500000
vn 0.000000 0.000000 1.000000
vt 5.000000 45.200001
v 55.000000 45.200001 7.500000
vn 0.000000 0.000000 1.000000
vt 55.000000 45.200001
v 5.000000 14.800000 7.500000
vn 0.000000 0.000000 1.000000
vt 5.000000 14.800000
v 55.000000 14.800000 7.500000
vn 0.000000 0.000000 1.000000
vt 55.000000 14.800000
usemtl generic
s off
f 1/1/1 2/2/2 3/3/3
f 4/4/4 5/5/5 6/6/6
f 7/7/7 8/8/8 9/9/9
f 10/10/10 11/11/11 12/12/12
f 13/13/13 14/14/14 15/15/15
f 16/16/16 17/17/17 18/18/18
